<svg version="1.1" xmlns="http://www.w3.org/2000/svg" xmlns:xlink="http://www.w3.org/1999/xlink" width="36.98542" height="37.57865" viewBox="0,0,36.98542,37.57865"><g transform="translate(-221.50729,-160.96067)"><g data-paper-data="{&quot;isPaintingLayer&quot;:true}" fill-rule="nonzero" stroke-linecap="butt" stroke-linejoin="miter" stroke-miterlimit="10" stroke-dasharray="" stroke-dashoffset="0" style="mix-blend-mode: normal"><path d="M229.3306,173.58751c1.51584,0.1029 1.83937,0.84987 3.14333,2.59451c3.66511,4.90374 -4.77129,10.5101 -8.9141,6.95912c-2.99815,-2.56984 -1.10113,-4.99409 1.05128,-7.20786c0.75731,-0.7789 3.38274,-3.23693 4.71948,-2.34577z" data-paper-data="{&quot;index&quot;:null}" fill="#fff64b" stroke="#000000" stroke-width="1"/><path d="M255.38888,176.45937c2.15241,2.21377 4.04944,4.63802 1.05129,7.20786c-4.1428,3.55097 -12.5792,-2.05538 -8.91409,-6.95912c1.30396,-1.74464 1.62749,-2.4916 3.14333,-2.59451c1.33674,-0.89116 3.96218,1.56687 4.71948,2.34577z" fill="#fff64b" stroke="#000000" stroke-width="1"/><path d="M252.8143,178.68198c-0.13269,9.01923 -3.20817,10.40819 -12.07663,10.70678c-13.91836,0.46861 -15.60127,-14.04572 -12.48632,-19.23729c2.11839,-3.53065 3.91338,-5.28925 7.38708,-7.49979c4.6528,-2.96087 11.34257,0.05215 14.2172,4.07664c2.87463,4.02448 2.95867,11.95366 2.95867,11.95366z" fill="#fff766" stroke="#000000" stroke-width="1"/><path d="M239.6416,195.67973c-0.35355,0.35355 -0.70711,0 -0.70711,0l-0.23593,-0.23593c-0.5454,-0.54758 -1.17265,-1.03771 -1.90192,-1.28284c0.1096,0.66371 0.16029,1.29143 0.16029,1.99095v0.35389c0,0 0,0.5 -0.5,0.5c-0.5,0 -0.5,-0.5 -0.5,-0.5v-0.35389c0,-0.64353 -0.04514,-1.20943 -0.14464,-1.81481c-0.5498,0.23079 -1.14824,0.29455 -1.65054,0.68129l-0.37654,0.25195c0,0 -0.41603,0.27735 -0.69338,-0.13868c-0.27735,-0.41603 0.13868,-0.69338 0.13868,-0.69338l0.33124,-0.2199c2.15541,-1.5844 2.93086,-1.54488 2.28693,-4.69231c0,0 -0.09806,-0.49029 0.39223,-0.58835c0.49029,-0.09806 0.58835,0.39223 0.58835,0.39223c0.17915,0.91352 0.41673,2.65238 0.05201,3.81774c0.97845,0.28152 1.79574,0.86293 2.5244,1.58899l0.23593,0.23593c0,0 0.35355,0.35355 0,0.70711z" fill="#000000" stroke="none" stroke-width="0.5"/><path d="M248.88447,196.56794c-0.41603,0.27735 -0.69338,-0.13868 -0.69338,-0.13868l0.02199,-0.1569c-0.75682,-0.25363 -1.46178,-0.78355 -2.22725,-0.96984c0.30445,0.83792 0.40815,1.71632 0.40815,2.61883v0.11796c0,0 0,0.5 -0.5,0.5c-0.5,0 -0.5,-0.5 -0.5,-0.5v-0.11796c0,-0.79305 -0.07091,-1.59169 -0.35918,-2.33161c-0.348,0.46899 -0.59049,1.04896 -0.79992,1.5736l0.03576,0.16819c0,0 0,0.5 -0.5,0.5c-0.5,0 -0.5,-0.5 -0.5,-0.5l0.03576,-0.53958c0.36244,-0.90437 0.79731,-1.78578 1.52046,-2.42611l-0.02271,-0.10134c0,-1.6589 -0.11796,-3.29185 -0.11796,-4.95445c0,0 0,-0.5 0.5,-0.5c0.5,0 0.5,0.5 0.5,0.5c0,1.66267 0.11796,3.29499 0.11796,4.95445l0.00042,0.00144c0.98722,0.13974 1.75361,0.73594 2.72473,1.05773l0.49384,0.55088c0,0 0.27735,0.41603 -0.13868,0.69338z" fill="#000000" stroke="none" stroke-width="0.5"/><path d="M236.68742,168.28906c0.19351,-0.23037 0.49485,-0.3755 0.93104,-0.36844c1.47401,0.02385 1.67816,3.07991 0.53533,3.61202c-1.9781,0.92102 -1.85754,-1.6437 -1.85754,-2.7038c0,0 0,-0.4407 0.39116,-0.53978z" fill="#000000" stroke="none" stroke-width="0.5"/><path d="M242.44576,168.49022c0.42631,-0.61893 1.34454,-0.76117 1.86754,0.006c0.50614,0.74244 0.15779,3.22817 -0.97311,3.38029c-1.57,0.21119 -1.27464,-2.0391 -1.27464,-2.90134c0,0 0,-0.41512 0.38021,-0.48495z" fill="#000000" stroke="none" stroke-width="0.5"/><path d="M241.03053,177.58905c-1.02113,0.14156 -1.74075,-0.46843 -2.60851,-0.85175c-0.86777,-0.38332 -0.44346,-1.70693 0.30474,-1.99541l0.77046,-0.29706c3.09637,-1.12289 5.0677,2.65423 1.53331,3.14421z" fill="#ff8221" stroke="#000000" stroke-width="0.5"/></g></g></svg>
